<?xml version="1.0" standalone="no"?>
<!DOCTYPE svg PUBLIC "-//W3C//DTD SVG 20010904//EN"
 "http://www.w3.org/TR/2001/REC-SVG-20010904/DTD/svg10.dtd">
<svg version="1.0" xmlns="http://www.w3.org/2000/svg"
 width="496.000000pt" height="85.000000pt" viewBox="0 0 496.000000 85.000000"
 preserveAspectRatio="xMidYMid meet">
<metadata>
Created by potrace 1.16, written by Peter Selinger 2001-2019
</metadata>
<g transform="translate(0.000000,85.000000) scale(0.100000,-0.100000)"
fill="#000000" stroke="none">
<path d="M515 736 c-27 -13 -60 -34 -73 -48 -12 -14 -44 -34 -70 -45 -26 -11
-71 -31 -99 -43 -36 -16 -61 -36 -80 -63 -35 -51 -106 -97 -150 -97 l-34 0 16
-30 c21 -40 52 -59 112 -69 28 -4 71 -20 96 -34 26 -15 68 -39 93 -53 32 -19
68 -29 119 -34 60 -6 83 -14 135 -46 34 -21 71 -45 83 -52 14 -8 46 -12 86 -9
57 3 67 6 92 35 25 27 29 41 29 87 l0 55 33 0 c44 1 70 17 106 68 17 23 32 42
34 43 1 0 38 4 82 8 70 8 82 12 102 37 26 33 37 75 28 104 -5 16 -10 18 -25
10 -39 -21 -89 -11 -158 31 l-67 40 -80 -6 -80 -7 -73 61 c-40 34 -84 66 -98
71 -43 17 -107 11 -159 -14z m133 -5 c18 -5 63 -35 100 -66 77 -64 121 -80
183 -66 48 11 71 4 144 -42 40 -26 59 -32 106 -32 l56 0 -9 -26 c-15 -45 -43
-62 -106 -66 -79 -6 -106 -19 -137 -64 -40 -61 -106 -78 -137 -35 l-17 24 47
11 c33 8 56 22 78 47 22 26 45 40 79 48 l48 13 -31 34 -30 34 -99 1 c-99 0
-99 0 -159 41 -33 23 -66 48 -74 58 -25 30 -68 46 -105 39 -19 -3 -66 -30
-105 -60 -39 -29 -90 -59 -112 -65 -29 -7 -62 -30 -108 -75 -54 -52 -70 -62
-90 -58 -23 5 -24 4 -7 -9 10 -8 39 -18 65 -22 58 -9 76 -18 129 -66 43 -40
51 -42 138 -39 64 2 98 -12 148 -56 33 -30 44 -35 70 -30 43 9 57 24 57 62 0
19 -2 34 -4 34 -2 0 -11 3 -20 6 -11 4 -16 1 -16 -10 0 -9 5 -16 10 -16 17 0
11 -37 -6 -44 -22 -9 -54 21 -54 50 0 12 12 32 26 43 59 46 132 10 141 -70 7
-62 -15 -104 -63 -119 -54 -18 -98 -6 -174 45 -60 41 -77 48 -143 55 -75 9
-98 18 -222 90 -27 16 -72 33 -99 36 -29 4 -59 16 -75 30 l-26 23 23 1 c37 0
73 24 137 92 44 46 72 67 105 77 68 22 111 45 165 90 67 56 112 69 173 52z
m-21 -126 c20 -9 61 -34 90 -57 42 -32 65 -42 103 -46 28 -2 50 -8 50 -11 0
-24 -30 -42 -80 -47 -30 -3 -73 -15 -96 -26 -28 -15 -49 -19 -68 -14 -33 8
-55 49 -37 70 16 19 46 26 62 15 11 -8 11 -11 -3 -20 -23 -13 -23 -29 0 -29
46 0 56 57 16 89 -48 38 -122 20 -164 -39 -12 -17 -36 -37 -53 -45 l-32 -13
49 -1 c39 -1 60 -9 108 -41 33 -22 71 -40 83 -40 21 0 22 -2 12 -25 -15 -31
-47 -33 -73 -4 -31 34 -70 49 -129 49 -62 0 -111 17 -138 48 -19 20 -19 21 21
31 28 8 58 30 102 76 55 56 108 94 133 95 4 0 24 -7 44 -15z m391 -99 c12 -12
11 -15 -9 -21 -13 -4 -42 -24 -64 -46 -27 -26 -55 -41 -87 -48 -57 -13 -237
-24 -192 -12 17 4 42 15 55 24 15 11 43 17 76 17 62 0 93 23 93 69 0 25 5 30
28 34 39 7 85 -1 100 -17z"/>
<path d="M1744 746 c-18 -8 -49 -30 -70 -49 -38 -34 -113 -77 -134 -77 -30 0
-103 -47 -130 -83 -40 -55 -104 -97 -147 -97 l-34 0 16 -30 c21 -40 52 -59
112 -69 28 -4 72 -20 99 -36 123 -71 156 -85 209 -85 55 0 113 -25 183 -78 31
-24 44 -27 108 -27 67 0 76 3 101 27 22 22 27 39 31 88 4 59 5 60 34 60 38 0
85 25 93 49 3 11 20 32 36 46 25 20 41 25 85 25 68 0 107 19 128 64 25 54 17
105 -14 86 -34 -22 -91 -10 -160 31 l-69 40 -78 -6 -78 -6 -59 48 c-32 26 -69
57 -82 68 -31 25 -135 31 -180 11z m123 -15 c18 -5 62 -34 98 -65 75 -64 123
-81 186 -67 48 11 71 4 143 -42 39 -24 60 -31 102 -31 62 -1 68 -13 30 -60
-21 -27 -30 -30 -92 -34 -75 -5 -110 -22 -134 -67 -29 -54 -106 -72 -133 -31
-16 24 -16 24 28 35 29 7 58 25 84 51 28 28 50 41 80 46 36 6 39 8 30 26 -6
10 -25 28 -42 39 -26 17 -43 19 -92 15 -85 -7 -127 5 -191 56 -111 86 -119 90
-158 83 -20 -4 -68 -31 -109 -61 -39 -30 -90 -59 -111 -65 -26 -7 -62 -32
-106 -75 -52 -50 -70 -62 -88 -57 -12 3 -22 1 -22 -5 0 -6 26 -16 58 -22 87
-17 90 -19 143 -66 51 -45 57 -47 144 -44 64 2 98 -12 148 -56 33 -30 44 -35
70 -30 16 3 36 11 44 17 25 21 11 89 -19 89 -13 0 -9 -28 5 -33 9 -3 9 -9 1
-23 -15 -25 -29 -28 -48 -9 -24 24 -20 61 10 84 35 28 76 27 110 -3 24 -20 28
-31 28 -79 1 -49 -3 -60 -27 -84 -23 -24 -36 -28 -80 -28 -46 0 -61 6 -125 49
-65 43 -83 50 -145 56 -81 9 -118 21 -162 54 -49 38 -112 66 -161 73 -27 3
-57 16 -73 29 l-26 23 25 1 c37 0 81 31 135 94 34 39 62 61 94 72 93 34 127
52 176 93 67 56 112 69 172 52z m-20 -126 c20 -9 55 -31 79 -50 50 -41 83 -55
129 -55 31 0 34 -2 26 -22 -9 -25 -36 -35 -96 -37 -22 -1 -53 -10 -70 -21 -36
-24 -63 -25 -93 -4 -32 22 -27 65 9 75 35 9 62 -7 37 -22 -24 -13 -23 -29 1
-29 48 0 52 66 6 96 -43 28 -100 13 -154 -39 -25 -24 -55 -49 -66 -55 -17 -10
-12 -11 30 -12 41 0 59 -7 106 -40 32 -22 68 -40 82 -40 23 0 24 -2 14 -25
-15 -31 -47 -33 -73 -4 -31 34 -70 49 -129 49 -62 0 -111 17 -138 48 -19 20
-19 21 20 31 26 7 57 30 100 74 53 55 110 96 136 97 4 0 24 -7 44 -15z m390
-97 c12 -9 8 -15 -24 -30 -21 -10 -48 -32 -61 -48 -15 -20 -37 -31 -70 -39
-59 -12 -240 -24 -196 -12 17 4 42 15 55 24 14 10 43 17 74 17 27 0 55 4 61 8
16 10 34 48 34 71 0 14 8 21 28 24 37 6 82 -1 99 -15z"/>
<path d="M2965 747 c-16 -8 -50 -31 -74 -51 -52 -44 -77 -57 -150 -81 -43 -14
-67 -31 -115 -82 -68 -72 -101 -93 -146 -93 -36 0 -37 -4 -5 -46 17 -22 40
-37 68 -44 23 -7 58 -16 77 -20 19 -5 60 -26 90 -45 75 -49 93 -56 178 -65 65
-7 81 -13 144 -56 60 -40 79 -49 127 -52 31 -2 68 1 83 7 40 15 68 67 68 124
l0 47 36 0 c32 0 44 8 94 60 57 59 58 60 113 60 31 0 67 5 81 12 33 15 69 87
60 122 -6 27 -18 33 -29 16 -3 -5 -25 -10 -48 -10 -32 0 -58 10 -107 40 l-65
41 -80 -6 -80 -6 -50 41 c-27 22 -65 52 -82 66 -40 32 -139 43 -188 21z m121
-16 c18 -5 64 -36 103 -69 77 -65 117 -78 185 -62 45 10 70 2 140 -43 39 -24
60 -31 102 -31 62 -1 68 -13 31 -60 -21 -26 -31 -30 -100 -35 -79 -7 -118 -28
-133 -73 -7 -22 -54 -48 -87 -48 -15 0 -31 10 -41 24 -17 27 -19 26 46 40 15
4 45 24 66 45 25 26 52 42 76 46 46 9 45 30 -2 62 -29 19 -45 22 -120 20 -97
-2 -119 7 -210 86 -25 21 -55 43 -67 49 -33 15 -96 -7 -150 -51 -46 -38 -70
-52 -148 -85 -20 -9 -60 -41 -89 -71 -41 -45 -55 -54 -74 -49 -14 4 -24 2 -24
-4 0 -6 26 -16 58 -22 75 -14 117 -34 137 -63 23 -36 62 -49 136 -48 81 2 113
-9 161 -56 32 -31 41 -35 69 -29 18 3 38 11 46 17 25 21 11 89 -19 89 -13 0
-9 -28 4 -32 16 -6 3 -37 -18 -45 -11 -4 -22 1 -30 12 -44 60 38 132 108 94
52 -28 59 -136 11 -180 -39 -37 -117 -34 -174 7 -72 51 -125 74 -172 74 -56 0
-115 21 -174 61 -55 38 -132 69 -171 69 -17 0 -38 10 -52 25 l-23 25 22 0 c37
0 76 26 132 90 47 52 64 64 131 89 46 17 96 45 126 71 47 39 107 69 142 70 8
0 29 -4 46 -9z m-19 -126 c20 -9 55 -30 77 -49 57 -46 79 -56 121 -56 32 0 36
-3 33 -22 -3 -20 -11 -24 -63 -31 -33 -5 -77 -17 -97 -28 -45 -23 -66 -24 -96
-3 -32 22 -27 65 9 75 15 3 33 3 40 -2 11 -7 10 -11 -6 -23 -26 -19 -12 -32
20 -18 56 26 8 102 -65 102 -35 0 -48 -7 -93 -49 -29 -26 -61 -53 -72 -59 -17
-10 -12 -11 30 -12 43 0 58 -6 104 -40 32 -25 64 -40 81 -40 26 0 27 -2 17
-25 -16 -34 -49 -32 -87 5 -34 33 -46 37 -141 43 -49 3 -75 11 -98 28 -17 12
-31 26 -31 30 0 5 18 13 39 19 28 7 54 26 86 63 49 55 118 107 142 107 7 0 30
-7 50 -15z m389 -96 c12 -10 8 -15 -24 -29 -22 -10 -49 -31 -61 -48 -15 -22
-34 -33 -69 -41 -59 -12 -240 -24 -196 -12 17 4 42 15 55 24 14 11 43 17 75
17 45 0 56 4 73 26 12 15 21 37 21 50 0 15 7 24 23 27 32 7 87 0 103 -14z"/>
<path d="M4181 744 c-19 -8 -52 -30 -74 -50 -38 -35 -73 -53 -168 -88 -34 -12
-61 -34 -99 -77 -57 -66 -94 -89 -140 -89 -16 0 -30 -4 -30 -9 0 -24 55 -71
93 -82 23 -6 58 -15 79 -20 20 -5 59 -25 88 -45 63 -43 119 -64 174 -64 48 0
102 -23 176 -74 44 -31 61 -36 107 -36 96 0 143 46 143 140 0 39 1 40 36 40
32 0 44 8 94 60 l57 60 63 0 c57 0 65 3 96 34 29 29 34 41 34 80 0 43 -11 59
-25 36 -3 -5 -25 -10 -48 -10 -32 0 -58 10 -107 40 l-65 41 -78 -7 c-86 -7
-96 -3 -172 67 -73 67 -158 87 -234 53z m165 -32 c12 -9 48 -38 79 -63 63 -51
106 -64 169 -49 44 10 62 4 137 -41 42 -27 64 -33 106 -33 57 0 59 -2 41 -41
-17 -37 -57 -55 -122 -55 -44 0 -60 -5 -85 -25 -16 -14 -33 -35 -36 -46 -8
-23 -54 -49 -88 -49 -13 0 -34 11 -46 24 l-23 25 38 7 c51 9 72 21 101 55 14
16 43 34 66 41 53 15 51 13 38 37 -20 37 -61 50 -153 48 -94 -2 -108 4 -226
100 -75 61 -100 57 -224 -35 -25 -19 -71 -44 -103 -57 -40 -17 -73 -40 -109
-79 -41 -44 -56 -54 -74 -50 -12 4 -22 2 -22 -4 0 -6 26 -16 58 -22 86 -17 90
-19 126 -55 50 -49 74 -59 145 -56 81 2 118 -10 160 -55 31 -32 38 -35 70 -29
20 4 42 11 49 17 17 14 15 63 -3 78 -21 18 -32 4 -17 -21 10 -16 10 -24 1 -35
-24 -29 -59 -3 -59 45 0 26 46 61 80 61 59 0 99 -73 79 -144 -13 -47 -41 -68
-96 -73 -42 -4 -55 0 -103 32 -89 59 -126 75 -173 75 -56 0 -115 21 -174 61
-55 38 -132 69 -171 69 -17 0 -38 10 -52 25 l-23 25 24 0 c34 0 76 30 134 95
42 46 62 60 127 84 46 17 96 45 126 71 28 23 68 48 89 56 45 17 109 10 139
-14z m-60 -107 c20 -8 58 -34 86 -56 39 -34 59 -43 99 -47 27 -2 49 -10 49
-16 -1 -25 -19 -36 -75 -42 -33 -4 -74 -15 -91 -25 -44 -27 -79 -24 -103 7
-24 31 -15 59 22 66 39 7 51 -1 31 -23 -22 -25 -11 -35 21 -21 56 26 8 102
-65 102 -35 0 -48 -7 -93 -49 -29 -26 -61 -53 -72 -59 -17 -10 -12 -11 30 -12
43 0 58 -6 104 -40 34 -25 64 -40 82 -40 29 0 29 0 13 -25 -22 -33 -46 -32
-86 5 -37 34 -46 37 -141 43 -54 4 -74 10 -104 33 l-37 28 44 13 c33 9 58 27
95 67 52 57 118 106 142 106 7 0 30 -7 49 -15z m376 -91 l31 -16 -41 -18 c-22
-10 -48 -29 -57 -43 -9 -14 -28 -30 -43 -36 -32 -13 -160 -31 -217 -30 -34 1
-36 2 -15 8 14 5 40 15 57 24 18 10 54 17 81 17 56 0 82 20 85 66 1 22 8 31
27 35 42 11 60 10 92 -7z"/>
</g>
</svg>
